<svg xmlns="http://www.w3.org/2000/svg" width="127" height="108" viewBox="0 0 127 108" fill="none">
  <ellipse opacity="0.1" cx="63.5793" cy="97.817" rx="62.8176" ry="9.35366" fill="#393939"/>
  <path d="M81.4175 11.1325C81.2487 11.0038 79.6855 9.84087 76.9008 8.72185C73.3134 7.28007 69.1971 6.51794 64.9971 6.51794C60.7971 6.51794 56.6809 7.28007 53.0931 8.72185C50.3087 9.84087 48.7455 11.0038 48.5765 11.1327C47.7286 11.7793 47.231 12.7846 47.231 13.8508V19.2135L50.6489 21.0416L54.0671 19.2135V15.7863C55.943 14.829 59.6943 13.3539 64.9969 13.3539C70.2997 13.3539 74.0508 14.829 75.9267 15.7863V19.2133L79.3446 21.0414L82.7628 19.2133V13.8508C82.7632 12.7844 82.2656 11.7791 81.4175 11.1325V11.1325Z" fill="#E8834D"/>
  <path d="M47.2349 19.2135V22.9876L50.653 24.8157L54.0712 22.9876V19.2135H47.2349Z" fill="#D66E41"/>
  <path d="M82.7668 19.2135H75.9307V22.9876L79.3489 24.8157L82.7668 22.9876V19.2135Z" fill="#D66E41"/>
  <path d="M15.6914 60.5894V90.9549C15.6914 94.5598 18.6138 97.4821 22.2186 97.4821H107.783C111.387 97.4821 114.31 94.5598 114.31 90.9549V60.5894H15.6914Z" fill="#365E7D"/>
  <path d="M15.6914 56.8154V60.5897C21.114 64.8951 35.4457 73.2531 65.0006 73.2531C94.5555 73.2531 108.887 64.8951 114.31 60.5895V56.8152H15.6914V56.8154Z" fill="#2B4D66"/>
  <path d="M15.4074 54.6416C20.6044 58.8727 34.9162 67.5327 65 67.5327C95.0838 67.5327 109.395 58.8727 114.593 54.6416C116.116 53.4013 117 49.7146 117 47.7502V29.5146C117 25.9098 114.078 22.9874 110.473 22.9874H19.5272C15.9224 22.9874 13 25.9098 13 29.5146V47.7502C13 49.7146 13.884 53.4013 15.4074 54.6416V54.6416Z" fill="#407093"/>
  <path d="M114.593 52.8137C109.396 57.0448 95.0838 65.7048 65 65.7048C34.9162 65.7048 20.6046 57.0446 15.4074 52.8137C13.884 51.5734 13 49.7148 13 47.7504V51.5246C13 53.4891 13.884 55.3476 15.4074 56.5879C20.6044 60.819 34.9162 69.4791 65 69.4791C95.0838 69.4791 109.395 60.819 114.593 56.5879C116.116 55.3476 117 53.4891 117 51.5246V47.7504C117 49.7148 116.116 51.5734 114.593 52.8137V52.8137Z" fill="#365E7D"/>
  <path d="M64.9993 75.7604C68.3761 75.7604 71.1134 73.2531 71.1134 67.8183V64.1112C71.1134 62.9095 70.1392 61.9355 68.9377 61.9355H61.0609C59.8592 61.9355 58.8853 62.9097 58.8853 64.1112V67.8189C58.8851 73.2531 61.6226 75.7604 64.9993 75.7604V75.7604Z" fill="#FFE27A"/>
  <path d="M64.9993 73.9323C61.6226 73.9323 58.8853 71.195 58.8853 67.8182V71.5925C58.8853 74.9693 61.6226 77.7066 64.9993 77.7066C68.3761 77.7066 71.1134 74.9693 71.1134 71.5925V67.8182C71.1134 71.1948 68.3761 73.9323 64.9993 73.9323V73.9323Z" fill="#F9CF58"/>
</svg>